<svg xmlns="http://www.w3.org/2000/svg" aria-hidden="true" style="position:absolute;width:0;height:0;overflow:hidden"><defs><symbol id="icon-envelope-2" viewBox="0 0 43 32"><path d="M38.667 0H4C1.794 0 0 1.794 0 4v24c0 2.206 1.794 4 4 4h34.667c2.206 0 4-1.794 4-4V4c0-2.206-1.794-4-4-4zm0 2.667c.181 0 .353.038.511.103L21.334 18.236 3.49 2.77a1.32 1.32 0 0 1 .511-.103h34.667zm0 26.666H4A1.334 1.334 0 0 1 2.667 28V5.587L20.46 21.008a1.335 1.335 0 0 0 1.748 0L40.001 5.587V28c0 .736-.598 1.333-1.333 1.333z"/></symbol><symbol xmlns="http://www.w3.org/2000/svg" id="icon-smartphone" viewBox="0 0 20 32"><path d="M17 0H3C1.346 0 0 1.346 0 3v26c0 1.654 1.346 3 3 3h14c1.654 0 3-1.346 3-3V3c0-1.654-1.346-3-3-3zM3 2h14a1 1 0 0 1 1 1v21H2V3a1 1 0 0 1 1-1zm14 28H3a1 1 0 0 1-1-1v-3h16v3a1 1 0 0 1-1 1z"/><path d="M4.707 27.478c.391.365.391.956 0 1.321s-1.024.365-1.414 0c-.391-.365-.391-.956 0-1.321s1.024-.365 1.414 0z"/></symbol><symbol id="icon-Group" viewBox="0 0 30 32"><path d="m29.859 22.098-8.443-8.505.937-4.615c.242.094.499.144.758.146h.006a2.159 2.159 0 1 0-2.008-1.435l-4.96.605L8.058.161a.534.534 0 0 0-.377-.16.532.532 0 0 0-.373.155L5.795 1.66a.534.534 0 0 0 0 .754l.814.826a14.943 14.943 0 0 0 2.519 17.663.513.513 0 0 0 .146.098c-.034.18-.051.364-.052.547v6.187h-6.4a2.67 2.67 0 0 0-2.667 2.667v1.067c0 .295.239.533.533.533h24.533a.533.533 0 0 0 .533-.533v-1.067a2.67 2.67 0 0 0-2.667-2.667h-6.4v-2.742a15.09 15.09 0 0 0 3.049.32 14.854 14.854 0 0 0 7.04-1.783l.818.823a.534.534 0 0 0 .377.16.532.532 0 0 0 .373-.155l1.513-1.504a.534.534 0 0 0 0-.754zM22.366 6.233a1.066 1.066 0 1 1 .752 1.822h-.003a1.067 1.067 0 0 1-.747-1.823h-.002zM21.11 9.738l-.598 2.946-1.175-1.182 1.774-1.763zm-.606-.902-1.92 1.909-1.485-1.493 3.405-.415zM23.09 28.8a1.6 1.6 0 0 1 1.6 1.6v.533H1.223V30.4a1.6 1.6 0 0 1 1.6-1.6H23.09zm-7.467-2.133v1.067H10.29v-1.067h5.333zM10.29 25.6v-4.053c0-1.294 1.196-2.347 2.667-2.347s2.667 1.053 2.667 2.347V25.6h-5.333zm6.4-1.696v-2.357c0-1.882-1.675-3.413-3.733-3.413a3.8 3.8 0 0 0-3.281 1.786A13.87 13.87 0 0 1 7.397 4.033l18.602 18.708a13.818 13.818 0 0 1-9.309 1.163zm11.289-.684L6.922 2.039l.755-.752 7.935 7.98c.004 0 .006.007.01.01l13.115 13.191-.757.752z"/><path d="M12.961 20.267h-.005a1.6 1.6 0 1 0-.004 3.2h.005a1.6 1.6 0 1 0 .004-3.2zm.374 1.978a.534.534 0 0 1-.752-.756.534.534 0 0 1 .373-.155.532.532 0 0 1 .373.911h.005z"/></symbol><symbol id="icon-group-6" viewBox="0 0 32 32"><path d="M16.145 15.628a1.004 1.004 0 0 1-.206-.677v-.982c0-.301.068-.53.205-.686s.371-.234.703-.234c.312 0 .534.067.665.2.143.17.213.378.197.587v.231h-.559v-.234a1.177 1.177 0 0 0-.016-.229.22.22 0 0 0-.08-.136.322.322 0 0 0-.202-.053.342.342 0 0 0-.213.056.264.264 0 0 0-.093.15c-.016.08-.023.161-.022.243v1.191a.608.608 0 0 0 .072.335c.028.035.066.063.111.081s.095.024.144.019a.302.302 0 0 0 .198-.054.235.235 0 0 0 .083-.145c.013-.079.019-.159.017-.239v-.242h.559v.221a.897.897 0 0 1-.193.617c-.128.146-.347.219-.668.219s-.564-.078-.702-.24zM18.47 15.638c-.141-.153-.212-.375-.212-.67v-1.032c0-.292.071-.512.212-.662s.377-.224.708-.224c.328 0 .563.075.704.224s.213.37.213.662v1.032c0 .292-.072.515-.215.669s-.377.231-.702.231c-.325 0-.566-.078-.708-.23zm.968-.247a.567.567 0 0 0 .067-.306v-1.264a.566.566 0 0 0-.066-.3c-.028-.036-.068-.065-.114-.082s-.097-.024-.147-.018c-.05-.006-.101 0-.148.018s-.086.046-.115.082a.545.545 0 0 0-.067.3v1.27a.57.57 0 0 0 .067.306.363.363 0 0 0 .262.103c.049 0 .098-.009.144-.027s.085-.043.118-.076v-.006zM20.767 13.08h.601l.452 1.905.463-1.905h.585l.059 2.749h-.433l-.046-1.911-.446 1.911h-.347l-.463-1.918-.043 1.918h-.437l.054-2.749zM23.602 13.08h.937c.54 0 .81.26.81.781 0 .499-.284.747-.852.747h-.319v1.222H23.6l.003-2.749zm.8 1.175c.057.006.115.002.17-.013s.105-.04.148-.074a.443.443 0 0 0 .083-.31.846.846 0 0 0-.028-.25c-.008-.027-.023-.053-.043-.075s-.045-.041-.073-.055a.608.608 0 0 0-.258-.044h-.224v.822h.224zM26.182 13.08h.621l.637 2.749h-.539l-.126-.634h-.554l-.13.634h-.547l.637-2.749zm.531 1.797-.216-1.154-.216 1.154h.433zM27.955 13.08h.405l.775 1.568V13.08h.48v2.749h-.385l-.779-1.637v1.637h-.496l.001-2.749zM30.739 14.782l-.644-1.697h.542l.393 1.09.369-1.09h.531l-.636 1.697v1.048h-.555v-1.048zM17.038 17.032v.144h-.472v1.117h-.198v-1.117h-.474v-.144h1.144zM18.517 18.293h-.153a.066.066 0 0 1-.043-.012.059.059 0 0 1-.025-.029l-.136-.3h-.655l-.136.3a.08.08 0 0 1-.021.034.07.07 0 0 1-.043.012h-.153l.578-1.261h.201l.585 1.256zm-.958-.468h.546l-.231-.513a.993.993 0 0 1-.043-.119l-.022.067-.021.053-.229.512zM19.514 18.169a.99.99 0 0 0 .109 0 .75.75 0 0 0 .176-.038l.077-.031v-.284h-.231c-.006 0-.011 0-.017-.002s-.01-.004-.014-.008c-.004-.003-.007-.006-.009-.01s-.003-.008-.003-.013v-.097h.449v.483a.795.795 0 0 1-.244.103 1 1 0 0 1-.145.026 1.893 1.893 0 0 1-.169.008.862.862 0 0 1-.291-.047.703.703 0 0 1-.231-.132.612.612 0 0 1-.149-.2.627.627 0 0 1-.053-.262.576.576 0 0 1 .201-.464.7.7 0 0 1 .231-.131.98.98 0 0 1 .31-.047c.054 0 .108.004.161.011a.813.813 0 0 1 .254.082c.035.02.069.042.101.066l-.056.078c-.004.007-.011.013-.019.017s-.017.007-.026.007a.075.075 0 0 1-.036-.01.822.822 0 0 1-.057-.03.582.582 0 0 0-.183-.062.901.901 0 0 0-.147-.011.672.672 0 0 0-.223.035.438.438 0 0 0-.278.257.585.585 0 0 0 0 .42.502.502 0 0 0 .285.259c.074.022.151.03.229.025zM21.357 18.149h.631v.144h-.825v-1.261h.198l-.005 1.117zM22.645 18.293h-.198v-1.261h.198v1.261zM23.381 17.038a.1.1 0 0 1 .03.023l.845.951a.338.338 0 0 1 0-.045V17.027h.172v1.266h-.099a.09.09 0 0 1-.043-.007.092.092 0 0 1-.031-.024l-.844-.95v.981h-.165v-1.261h.103c.011 0 .022.002.032.006zM25.885 17.032v.139h-.701v.416h.568v.134h-.568v.43h.701v.139h-.904v-1.258h.904zM5.161 9.244l8.781 2.153v7.543l-8.781-2.152V9.244zm-.563-.643v8.554l9.907 2.429v-8.553l-9.907-2.43z"/><path d="M9.908 23.555 0 21.124v-8.553l9.908 2.43v8.554z"/><path d="m4.762 9.148 8.667 2.126-3.686 3.183-8.668-2.127 3.687-3.182zm-.164-.547L0 12.571l9.908 2.43 4.597-3.97-9.907-2.43zM10.465 23.074l4.04-3.488-4.04-.991v4.48z"/></symbol><symbol id="icon-group-5" viewBox="0 0 32 32"><path d="M2.416 23.738c.124.14.19.316.186.496.006.118-.016.235-.066.344s-.126.205-.222.283c-.24.166-.538.248-.839.229H0v-3.145h1.445c.285-.017.568.056.8.209.093.072.167.162.216.264s.071.213.064.324a.69.69 0 0 1-.168.481.796.796 0 0 1-.44.246.856.856 0 0 1 .498.269zm-1.73-.474h.617c.14.009.28-.028.393-.104.046-.038.082-.086.105-.139s.032-.111.027-.168c.004-.057-.005-.114-.028-.167s-.058-.101-.103-.14a.635.635 0 0 0-.404-.106H.686v.825zm1.071 1.206c.05-.039.089-.089.114-.144s.036-.115.032-.175a.387.387 0 0 0-.15-.322.683.683 0 0 0-.419-.114H.686v.865h.656a.693.693 0 0 0 .414-.109zM5.369 25.09l-.804-1.229h-.302v1.229h-.691v-3.145h1.309c.33-.021.656.075.911.267.183.171.293.396.311.634s-.058.475-.214.667a1.096 1.096 0 0 1-.624.32l.856 1.257h-.752zm-1.105-1.657h.565c.393 0 .589-.159.589-.476.004-.065-.007-.13-.032-.191s-.063-.116-.113-.163a.659.659 0 0 0-.445-.128h-.572l.007.957zM9.148 24.457H7.77l-.243.633h-.725l1.265-3.11h.784l1.26 3.11h-.725l-.238-.633zm-.185-.476-.503-1.327-.503 1.327h1.007zM13.878 25.09h-.686l-1.539-2.139v2.139h-.685v-3.145h.685l1.539 2.151v-2.151h.686v3.145zM17.794 24.338a1.433 1.433 0 0 1-.621.555c-.299.138-.63.206-.965.198h-1.222v-3.145h1.222c.334-.008.665.058.965.194.263.121.479.312.621.548.141.256.215.538.215.825s-.074.569-.215.825zm-.785-.076c.196-.209.304-.475.304-.751s-.108-.542-.304-.75a1.264 1.264 0 0 0-.859-.267h-.476v2.036h.476c.314.018.622-.078.859-.267zM9.578 4.453s8.858 3.062 8.67 7.493v7.494s-8.851-3.063-8.666-7.494l-.003-7.493zM26.139 17.685a12.85 12.85 0 0 1 5.628-1.899V13.44c-2.327.821-4.302 2.311-5.628 4.245z"/><path d="M25.134 18.392c1.369-2.524 3.743-4.472 6.633-5.443v-6.76S19.152 10.551 19.419 16.86v10.67s.562-.195 1.446-.561c0-.341 0-.685.04-1.031.261-2.929 1.782-5.644 4.228-7.546z"/><path d="M23.934 22.356c.066-.74.214-1.472.441-2.185-1.523 1.643-2.446 3.682-2.638 5.83a9.502 9.502 0 0 0-.034.615c.716-.315 1.55-.708 2.426-1.171a10.093 10.093 0 0 1-.196-3.09zM24.436 22.394a9.664 9.664 0 0 0 .156 2.798c3.446-1.888 7.319-4.806 7.17-8.332v-.307c-2.462.252-4.766 1.238-6.557 2.805a9.782 9.782 0 0 0-.768 3.036z"/></symbol><symbol id="icon-group-4" viewBox="0 0 32 32"><path d="M4.949 13.027h-.001c-.903 0-1.635.65-1.635 1.453v.001c0 .802.732 1.453 1.635 1.453h.001c.903 0 1.635-.65 1.635-1.453v-.001c0-.802-.732-1.453-1.635-1.453zM17.015 12.563c-.003-1.114-.502-2.182-1.388-2.97s-2.088-1.232-3.342-1.234c-1.254.002-2.457.446-3.344 1.234s-1.386 1.856-1.389 2.971v6.145s9.462-.937 9.463-6.144v-.001zM0 20.725c.002.775.35 1.518.967 2.067s1.453.857 2.325.86c.872-.002 1.708-.311 2.325-.859s.964-1.291.967-2.066v-4.276S0 17.103 0 20.726zm3.292.766c-.171 0-.337-.045-.479-.129s-.252-.204-.317-.344c-.065-.14-.082-.294-.049-.443s.115-.285.236-.392.274-.18.441-.21c.167-.03.341-.014.498.044s.292.156.387.282a.705.705 0 0 1-.107.97c-.08.071-.175.128-.28.167s-.217.059-.331.059v-.003zM9.31 20.119v1.606h-.331v-1.606h.331zm.64.686v.258h-.73v-.258h.73zm.077-.686v.259H9.22v-.259h.807zm1.511.766v.076c0 .122-.017.232-.05.329s-.08.18-.14.248c-.06.068-.132.119-.216.155s-.175.054-.277.054c-.101 0-.193-.018-.277-.054s-.155-.088-.216-.155c-.061-.068-.108-.151-.142-.248s-.05-.207-.05-.329v-.076c0-.123.017-.232.05-.329s.08-.18.14-.248c.061-.068.133-.121.216-.157s.176-.054.277-.054c.101 0 .194.018.277.054s.156.088.216.157c.061.068.108.151.141.248s.051.206.051.329zm-.334.076v-.078c0-.085-.008-.16-.023-.225s-.038-.119-.068-.163a.296.296 0 0 0-.259-.133.293.293 0 0 0-.258.133.485.485 0 0 0-.067.163c-.015.065-.023.14-.023.225v.078c0 .085.008.16.023.225s.038.119.068.164a.299.299 0 0 0 .259.134.29.29 0 0 0 .258-.134c.029-.045.052-.1.067-.164s.023-.14.023-.225zm1.408.344c0-.029-.004-.054-.013-.077s-.024-.045-.046-.064c-.023-.02-.055-.039-.096-.058s-.095-.039-.16-.06c-.073-.024-.142-.05-.207-.079s-.122-.064-.172-.103c-.049-.04-.088-.086-.117-.138s-.042-.113-.042-.182c0-.067.015-.128.044-.182s.071-.102.124-.141c.053-.04.115-.07.187-.092s.153-.032.239-.032c.118 0 .222.021.31.064s.157.101.205.175a.452.452 0 0 1 .074.255h-.329c0-.047-.01-.088-.03-.124s-.049-.064-.088-.085a.31.31 0 0 0-.148-.031c-.057 0-.105.009-.143.026s-.067.04-.086.069a.173.173 0 0 0-.029.097c0 .027.007.052.02.074s.035.043.062.062c.027.019.061.037.1.054s.086.033.138.05c.088.026.164.056.23.089s.123.07.168.111a.4.4 0 0 1 .135.318c0 .07-.014.132-.041.188s-.067.102-.118.14c-.051.038-.113.067-.184.087s-.151.03-.239.03c-.079 0-.158-.01-.235-.031s-.147-.053-.211-.096c-.063-.043-.113-.097-.15-.163s-.056-.145-.056-.235h.332c0 .05.008.092.023.127s.037.063.065.084c.029.021.063.037.101.046s.083.014.13.014c.057 0 .104-.008.141-.024s.065-.039.083-.067a.18.18 0 0 0 .028-.097zm1.274-1.186v1.606h-.33v-1.606h.33zm.494 0v.259h-1.31v-.259h1.31zm1.267 1.348v.258h-.855v-.258h.855zm-.747-1.348v1.606h-.331v-1.606h.331zm.635.654v.251h-.743v-.251h.743zm.11-.654v.259h-.854v-.259h.854zm.195 0h.599c.123 0 .228.018.317.055s.157.091.205.163a.47.47 0 0 1 .072.266c0 .086-.015.16-.044.222s-.07.112-.122.153a.643.643 0 0 1-.184.097l-.105.055h-.521l-.002-.258h.387c.058 0 .106-.01.145-.031s.067-.049.086-.086a.263.263 0 0 0 .03-.128c0-.051-.01-.096-.029-.133s-.048-.066-.087-.086a.32.32 0 0 0-.147-.03h-.268v1.347h-.331v-1.606zm.897 1.606-.366-.716.35-.002.371.703v.015h-.354zm1.737-.572h-.409v-.258h.409c.063 0 .115-.01.154-.031s.069-.051.087-.088a.314.314 0 0 0 0-.26c-.018-.041-.047-.074-.087-.099s-.091-.038-.154-.038h-.294v1.347h-.331V20.12h.625c.126 0 .233.023.323.068a.488.488 0 0 1 .279.458c0 .104-.024.193-.072.269s-.117.134-.207.175a.772.772 0 0 1-.323.062zm1.909.314v.258h-.855v-.258h.855zm-.747-1.348v1.606h-.331v-1.606h.331zm.635.654v.251h-.743v-.251h.743zm.11-.654v.259h-.854v-.259h.854zm.935 0v1.606h-.33v-1.606h.33zm.494 0v.259H20.5v-.259h1.31zm1.266 1.348v.258h-.855v-.258h.855zm-.747-1.348v1.606h-.331v-1.606h.331zm.636.654v.251h-.743v-.251h.743zm.11-.654v.259h-.854v-.259h.854zm.194 0h.599c.123 0 .228.018.317.055s.157.091.205.163a.47.47 0 0 1 .072.266c0 .086-.015.16-.044.222s-.07.112-.122.153a.643.643 0 0 1-.184.097l-.105.055h-.521l-.002-.258h.387c.058 0 .106-.01.145-.031s.067-.049.086-.086a.263.263 0 0 0 .03-.128c0-.051-.01-.096-.029-.133s-.048-.066-.087-.086a.32.32 0 0 0-.147-.03h-.268v1.347h-.331v-1.606zm.898 1.606-.366-.716.35-.002.371.703v.015h-.354zm1.385-.42c0-.029-.004-.054-.013-.077s-.024-.045-.046-.064c-.023-.02-.055-.039-.096-.058s-.095-.039-.16-.06c-.073-.024-.142-.05-.207-.079s-.122-.064-.172-.103c-.049-.04-.088-.086-.117-.138s-.042-.113-.042-.182c0-.067.015-.128.044-.182s.071-.102.124-.141c.053-.04.115-.07.187-.092s.153-.032.239-.032c.118 0 .222.021.31.064s.157.101.205.175a.452.452 0 0 1 .074.255h-.329c0-.047-.01-.088-.03-.124s-.049-.064-.088-.085a.31.31 0 0 0-.148-.031c-.057 0-.105.009-.143.026s-.067.04-.086.069a.173.173 0 0 0-.029.097c0 .027.007.052.02.074s.035.043.062.062c.027.019.061.037.1.054s.086.033.138.05c.087.026.164.056.23.089s.123.07.168.111a.4.4 0 0 1 .135.318c0 .07-.014.132-.041.188s-.067.102-.118.14c-.051.038-.113.067-.184.087s-.151.03-.239.03c-.079 0-.158-.01-.235-.031s-.147-.053-.211-.096c-.063-.043-.113-.097-.15-.163s-.056-.145-.056-.235h.332c0 .05.008.092.023.127s.037.063.065.084c.029.021.063.037.102.046s.083.014.13.014c.057 0 .104-.008.141-.024s.065-.039.083-.067a.18.18 0 0 0 .028-.097z"/></symbol><symbol id="icon-group-3" viewBox="0 0 32 32"><path d="M5.267 30.294a.098.098 0 0 1 .06.024l.155.148c-.12.12-.269.216-.436.281a1.7 1.7 0 0 1-.618.101 1.66 1.66 0 0 1-.582-.094 1.266 1.266 0 0 1-.438-.266 1.189 1.189 0 0 1-.283-.411 1.373 1.373 0 0 1-.099-.527 1.223 1.223 0 0 1 .408-.94c.132-.116.291-.207.465-.268.191-.064.394-.096.599-.094.19-.004.379.025.556.086.154.058.295.138.417.238l-.13.158a.132.132 0 0 1-.033.029.093.093 0 0 1-.052.012.119.119 0 0 1-.056-.017l-.07-.042-.097-.054a1.136 1.136 0 0 0-.306-.094 1.366 1.366 0 0 0-.231-.017 1.225 1.225 0 0 0-.43.071 1 1 0 0 0-.337.199.918.918 0 0 0-.219.317 1.042 1.042 0 0 0-.079.418c-.002.145.025.288.079.425.047.116.12.223.215.315a.878.878 0 0 0 .322.195c.127.046.262.068.399.067.079.001.158-.003.237-.013a.944.944 0 0 0 .512-.217.12.12 0 0 1 .074-.027zM9.745 29.549c.002.179-.033.356-.105.524-.063.152-.163.291-.292.407s-.286.207-.458.267c-.38.126-.799.126-1.179 0a1.36 1.36 0 0 1-.456-.268 1.205 1.205 0 0 1-.295-.411c-.14-.339-.14-.71 0-1.05.066-.153.166-.293.295-.413.13-.112.285-.2.456-.258.379-.128.8-.128 1.179 0 .172.061.328.152.458.268.128.117.227.255.293.406.072.169.107.347.105.527zm-.407 0a1.11 1.11 0 0 0-.074-.421.863.863 0 0 0-.535-.514 1.365 1.365 0 0 0-.857 0 .912.912 0 0 0-.328.199.836.836 0 0 0-.209.315 1.23 1.23 0 0 0 0 .842.86.86 0 0 0 .537.512c.276.09.581.09.857 0a.922.922 0 0 0 .328-.197.872.872 0 0 0 .207-.315 1.11 1.11 0 0 0 .074-.421zM12.801 29.991l.041.094c.015-.034.029-.064.045-.094.015-.032.032-.063.05-.093l.991-1.565c.019-.027.037-.044.056-.049a.246.246 0 0 1 .081-.008h.293v2.545h-.347v-1.95a.646.646 0 0 1 0-.088l-.997 1.587c-.013.024-.033.044-.058.058s-.055.021-.085.021h-.056c-.03 0-.06-.007-.085-.021s-.046-.034-.058-.058l-1.026-1.597v2.043h-.335v-2.54h.293a.276.276 0 0 1 .081.008c.024.01.043.028.054.049l1.012 1.567c.02.029.037.059.05.091zM16.529 29.864v.953h-.388v-2.542h.865c.163-.003.326.016.483.056a.97.97 0 0 1 .341.158.655.655 0 0 1 .194.249.766.766 0 0 1 .066.325.727.727 0 0 1-.072.325.698.698 0 0 1-.209.254.981.981 0 0 1-.343.168 1.63 1.63 0 0 1-.467.059l-.469-.007zm0-.272h.469a1.08 1.08 0 0 0 .3-.039.645.645 0 0 0 .217-.11.487.487 0 0 0 .179-.382c.005-.071-.009-.141-.039-.207s-.076-.125-.136-.174a.834.834 0 0 0-.522-.136h-.469v1.048zM21.741 30.821h-.306a.139.139 0 0 1-.085-.024.157.157 0 0 1-.05-.059l-.264-.615h-1.324l-.273.615a.146.146 0 0 1-.048.057.148.148 0 0 1-.087.025h-.306l1.163-2.546h.403l1.179 2.546zm-1.92-.945h1.093l-.461-1.036a1.755 1.755 0 0 1-.087-.239l-.045.133c-.014.04-.029.078-.043.108l-.458 1.034zM23.416 28.288a.174.174 0 0 1 .058.045l1.696 1.919v-1.976h.347v2.545h-.194a.174.174 0 0 1-.141-.062l-1.695-1.917a.646.646 0 0 1 0 .088v1.891h-.347v-2.545h.206a.167.167 0 0 1 .07.012zM28.376 29.809v1.011h-.388v-1.011l-1.072-1.533h.347a.133.133 0 0 1 .083.022.216.216 0 0 1 .052.057l.671.989c.027.042.05.081.07.118s.035.072.048.108l.05-.11a.888.888 0 0 1 .066-.116l.661-.996a.284.284 0 0 1 .05-.054.128.128 0 0 1 .083-.025h.351l-1.074 1.54zM12.609 24.004c.169.019.339.034.512.047 2.616-1.017 4.829-2.681 6.363-4.785s2.319-4.553 2.259-7.043L18.86 9.718c.586 2.651.312 5.39-.792 7.913s-2.994 4.729-5.459 6.372z"/><path d="m11.58 23.888.078.013c2.634-1.637 4.642-3.923 5.765-6.562s1.308-5.51.533-8.242L13.85 5.529c1.661 2.933 2.329 6.215 1.928 9.464s-1.857 6.334-4.196 8.893zM25.506 15.165c-.698 2.735-2.392 5.202-4.832 7.035a15.392 15.392 0 0 1-2.296 1.432c1.986-.507 3.812-1.404 5.337-2.621s2.707-2.723 3.456-4.4l-1.666-1.445z"/><path d="m24.853 14.763-2.371-2.06c-.045 2.349-.814 4.644-2.226 6.648s-3.416 3.642-5.803 4.745h.012c.532 0 1.064-.028 1.592-.083 2.231-.791 4.202-2.05 5.737-3.664s2.586-3.533 3.06-5.586zM11.923 4.026 9.094 1.565c-2.529.849-4.704 2.342-6.24 4.282S.492 10.086.484 12.442c.009 2.603 1.018 5.128 2.865 7.177s4.429 3.504 7.335 4.135c2.594-2.746 4.113-6.14 4.336-9.688s-.862-7.065-3.097-10.04zM31.388 14.384c-.01-3.088-1.427-6.047-3.94-8.23s-5.919-3.414-9.473-3.423a15.073 15.073 0 0 0-4.803.777l17.32 15.048c.593-1.33.897-2.744.896-4.171z"/></symbol><symbol id="icon-group-2" viewBox="0 0 32 32"><path d="M14.257 2.202h-.082c-.127-.008-.254-.011-.38-.014h-.275c-.24 0-.484.006-.727.018a.505.505 0 0 0-.055 0 17.08 17.08 0 0 0-6.349 1.62l-.261.126V17.32l.611-.207c.536-.184 1.107-.35 1.698-.504a20.731 20.731 0 0 1 4.888-.649v1.756c-.218.002-.431.008-.643.018h-.05c-1.269.07-2.528.263-3.76.577a19.11 19.11 0 0 0-4.48 1.746V2.912a17.931 17.931 0 0 1 4.7-1.911A17.94 17.94 0 0 1 13.521.43h.258c.309.008.609.022.892.043.744.052 1.483.17 2.207.352v1.729a13.54 13.54 0 0 0-2.182-.326 5.148 5.148 0 0 0-.437-.025zM17.3 3.97c.383.029.78.043 1.182.043a19.006 19.006 0 0 0 4.657-.597 19.187 19.187 0 0 0 4.478-1.747v16.84c-1.47.856-3.053 1.5-4.701 1.912a18.089 18.089 0 0 1-4.429.57 13.539 13.539 0 0 1-3.36-.396V3.646a13.76 13.76 0 0 0 2.174.325zm8.57.13-.611.206c-.562.189-1.129.358-1.698.508a20.693 20.693 0 0 1-5.075.651c-.399 0-.765-.011-1.12-.034l-.487-.032v13.752l.418.037c.388.034.788.051 1.191.051a16.284 16.284 0 0 0 3.997-.517 16.81 16.81 0 0 0 3.123-1.122l.261-.126V4.101zM5.577 25.917a.9.9 0 0 0-.68-.275 1.002 1.002 0 0 0-.393.074.874.874 0 0 0-.502.508.984.984 0 0 0-.07.379v2.291c-.005.161.025.322.09.47a.922.922 0 0 0 .229.307.804.804 0 0 0 .315.163c.111.031.226.047.342.048a.962.962 0 0 0 .948-.964v-.256h-.599v.204a.525.525 0 0 1-.035.204.355.355 0 0 1-.087.129.41.41 0 0 1-.25.087.307.307 0 0 1-.281-.122.543.543 0 0 1-.079-.307v-2.136a.723.723 0 0 1 .073-.342.303.303 0 0 1 .293-.138.317.317 0 0 1 .267.129.485.485 0 0 1 .099.307v.198h.593v-.233a1.1 1.1 0 0 0-.073-.401.928.928 0 0 0-.2-.322zM9.134 25.891a1.07 1.07 0 0 0-.681-.252 1.058 1.058 0 0 0-.357.064.947.947 0 0 0-.548.508c-.06.14-.09.291-.087.444v2.197c-.004.155.026.308.087.45a.886.886 0 0 0 .232.307.928.928 0 0 0 .316.193 1.038 1.038 0 0 0 .714 0 .952.952 0 0 0 .55-.5c.061-.142.091-.295.087-.45v-2.197a1.076 1.076 0 0 0-.087-.444.99.99 0 0 0-.226-.321zm-.279 2.962a.387.387 0 0 1-.119.317.441.441 0 0 1-.564 0 .389.389 0 0 1-.119-.317v-2.197a.387.387 0 0 1 .119-.317.441.441 0 0 1 .564 0 .389.389 0 0 1 .119.317v2.197zM13.807 29.834v-4.159h-.576l-.756 2.202h-.011l-.762-2.202h-.57v4.159h.594v-2.53h.011l.582 1.789h.296l.586-1.789h.011v2.53h.594zM17.182 25.966a.82.82 0 0 0-.336-.227 1.314 1.314 0 0 0-.431-.064h-.883v4.159h.593V28.21h.305a1.09 1.09 0 0 0 .535-.114.863.863 0 0 0 .325-.318.989.989 0 0 0 .136-.362 3 3 0 0 0 .032-.473c.006-.2-.014-.399-.058-.594a.896.896 0 0 0-.218-.382zm-.305 1.269a.523.523 0 0 1-.055.216.333.333 0 0 1-.153.146.613.613 0 0 1-.28.052h-.27v-1.414h.305a.558.558 0 0 1 .267.052c.061.035.11.089.139.154.032.073.05.152.052.232v.276c0 .096.006.197 0 .286h-.006zM19.99 25.675h-.486l-.916 4.159h.593l.174-.894h.808l.174.894h.593l-.939-4.159zm-.547 2.699.292-1.508h.011l.29 1.508h-.593zM23.819 28.18h-.011l-.895-2.506h-.57v4.159h.593v-2.501h.012l.906 2.501h.557v-4.159h-.593v2.506zM27.44 25.675l-.477 1.654h-.012l-.477-1.654h-.628l.814 2.401v1.758h.593v-1.758l.814-2.401h-.628zM3.925 31.008h.286v.801h.194v-.801h.284v-.164h-.764v.164zM6.326 30.844l-.374.966h.206l.079-.22h.385l.082.22h.211l-.383-.966h-.206zm-.031.584.131-.358.131.358h-.263zM8.699 31.454h.223v.124a.368.368 0 0 1-.229.081.242.242 0 0 1-.204-.092.409.409 0 0 1-.072-.252c0-.215.093-.322.278-.322a.206.206 0 0 1 .218.153l.191-.037c-.041-.189-.177-.284-.409-.284a.49.49 0 0 0-.338.124.466.466 0 0 0-.139.371.524.524 0 0 0 .124.362.46.46 0 0 0 .367.141.582.582 0 0 0 .409-.153v-.381H8.7v.163zM11.123 30.844h-.196v.966h.677v-.164h-.481v-.801zM13.173 30.844h-.196v.966h.195v-.966zM15.177 31.489l-.396-.645h-.189v.966h.182v-.631l.388.631h.194v-.966h-.179v.645zM16.988 31.385h.481v-.164h-.481v-.212h.518v-.164h-.713v.966h.733v-.164h-.538v-.261zM21.381 31.225h-.38v-.381h-.194v.966h.194v-.422h.38v.422h.194v-.966h-.194v.381zM23.203 31.385h.483v-.164h-.483v-.212h.519v-.164h-.713v.966h.732v-.164h-.538v-.261zM25.674 31.385c.168-.026.254-.115.254-.269.005-.041-.001-.083-.018-.12s-.043-.07-.077-.094a.542.542 0 0 0-.283-.057h-.409v.966h.194v-.404h.038a.265.265 0 0 1 .121.021.204.204 0 0 1 .069.071l.211.307h.232l-.118-.189a.67.67 0 0 0-.214-.232zm-.195-.134h-.144v-.243h.153a.504.504 0 0 1 .197.023c.014.012.025.028.033.045s.011.036.01.055c-.001.019-.006.037-.015.054s-.021.031-.037.042a.55.55 0 0 1-.197.023zM27.538 31.385h.481v-.164h-.481v-.212h.519v-.164h-.715v.966h.733v-.164h-.538v-.261z"/></symbol><symbol id="icon-group-1" viewBox="0 0 32 32"><path d="m6.333.475 4.672 4.423-8.672-.005v21.458H25v-8.204l4.667 4.418V.476H6.334zm18.462 17.153L11.548 5.088h13.247v12.54zm-4.113 5.584H5.92V8.78h1.043v13.454h13.719v.977zM9.406 29.208l-.545 1.123-.545-1.123h-.457l.796 1.497v.872h.413v-.872l.794-1.497h-.456zm.685 2.37.192-.552h.918l.194.552h.43l-.897-2.37h-.369l-.895 2.37h.428zm.651-1.867.343.983h-.687l.343-.983zm2.171.926a.537.537 0 0 0-.09.301c0 .2.07.362.21.487.141.124.329.186.563.186s.436-.063.605-.19l.133.158h.459l-.348-.412c.137-.187.205-.426.205-.718h-.343a.95.95 0 0 1-.099.435l-.457-.54.161-.117a.894.894 0 0 0 .246-.247.524.524 0 0 0 .075-.273.487.487 0 0 0-.166-.376.598.598 0 0 0-.423-.153.629.629 0 0 0-.456.163.576.576 0 0 0-.169.439.58.58 0 0 0 .054.236c.037.081.101.18.194.296-.176.126-.294.235-.353.327zm1.07.524a.603.603 0 0 1-.374.133c-.118 0-.213-.034-.283-.103s-.106-.157-.106-.267c0-.127.065-.24.195-.339l.05-.036.518.61zm-.425-1.05c-.112-.138-.168-.252-.168-.343 0-.079.023-.145.068-.197s.107-.078.184-.078c.072 0 .131.022.177.067.047.043.07.096.07.158 0 .093-.034.17-.101.23l-.05.041-.181.124zm3.857 1.288c.163-.142.256-.34.28-.592h-.41c-.022.169-.073.29-.155.363s-.203.109-.365.109c-.177 0-.311-.067-.404-.202s-.137-.33-.137-.586v-.21c.002-.253.051-.444.146-.575a.483.483 0 0 1 .413-.197c.154 0 .271.038.35.114.08.075.13.197.15.368h.41c-.026-.259-.119-.46-.278-.602s-.37-.213-.632-.213a.955.955 0 0 0-.514.138c-.148.092-.261.224-.34.394s-.119.367-.119.591v.221c.003.218.044.41.122.575s.189.292.332.383a.932.932 0 0 0 .5.133c.27 0 .487-.071.649-.212zm2.421-.332c.08-.176.12-.38.12-.612v-.132a1.423 1.423 0 0 0-.124-.607.897.897 0 0 0-.347-.4c-.149-.093-.32-.14-.513-.14s-.365.047-.514.142a.924.924 0 0 0-.347.405 1.456 1.456 0 0 0-.122.612v.133c.001.227.042.427.124.601a.934.934 0 0 0 .348.402.96.96 0 0 0 .514.14.947.947 0 0 0 .514-.14.908.908 0 0 0 .345-.404zm-.441-1.34c.1.14.15.341.15.604v.124c0 .267-.049.47-.148.609a.483.483 0 0 1-.42.208.492.492 0 0 1-.423-.213c-.101-.142-.151-.343-.151-.604v-.137c.002-.255.053-.452.153-.591.101-.14.24-.21.418-.21.182 0 .323.07.422.21z"/></symbol><symbol id="icon-Ellipse" viewBox="0 0 32 32"><path d="M32 16c0 4.418-1.791 8.418-4.686 11.314S20.419 32 16 32s-8.418-1.791-11.314-4.686C1.791 24.419 0 20.419 0 16S1.791 7.582 4.686 4.686 11.581 0 16 0c4.418 0 8.418 1.791 11.314 4.686S32 11.581 32 16z"/><path d="M23.258 13.004c-.034-.773-.159-1.304-.338-1.765a3.557 3.557 0 0 0-.841-1.29 3.589 3.589 0 0 0-1.287-.838c-.463-.179-.992-.304-1.764-.338-.779-.037-1.026-.046-3.001-.046s-2.222.009-2.998.043c-.773.034-1.304.159-1.764.338a3.557 3.557 0 0 0-1.29.841 3.589 3.589 0 0 0-.838 1.287c-.179.463-.304.992-.338 1.764-.037.779-.045 1.026-.045 3.001s.008 2.222.043 2.998c.034.773.159 1.304.338 1.765.185.489.472.926.841 1.29.364.369.804.656 1.287.838.463.179.992.304 1.765.338.776.034 1.023.043 2.998.043s2.222-.008 2.998-.043c.773-.034 1.304-.159 1.764-.338a3.72 3.72 0 0 0 2.128-2.128c.179-.463.304-.992.338-1.765.034-.776.043-1.023.043-2.998s-.003-2.222-.037-2.998zm-1.309 5.938c-.031.71-.151 1.094-.25 1.35a2.409 2.409 0 0 1-1.381 1.381c-.256.099-.642.219-1.35.25-.767.034-.997.043-2.938.043s-2.174-.008-2.938-.043c-.71-.031-1.094-.15-1.35-.25a2.228 2.228 0 0 1-.835-.543 2.264 2.264 0 0 1-.543-.835c-.099-.256-.219-.642-.25-1.35-.034-.767-.043-.997-.043-2.938s.008-2.174.043-2.938c.031-.71.151-1.094.25-1.35.117-.315.301-.602.546-.835.236-.242.52-.426.835-.543.256-.099.642-.219 1.35-.25.767-.034.997-.043 2.938-.043 1.944 0 2.174.008 2.938.043.71.031 1.094.151 1.35.25.315.116.602.301.835.543.241.236.426.52.543.835.099.256.219.642.25 1.35.034.767.043.997.043 2.938s-.009 2.168-.043 2.935z"/><path d="M16.027 12.265a3.737 3.737 0 0 0 0 7.472c2.063 0 3.737-1.674 3.737-3.736s-1.674-3.736-3.737-3.736zm0 6.16a2.424 2.424 0 1 1 0-4.849 2.424 2.424 0 0 1 0 4.849zM20.784 12.117a.872.872 0 1 1-1.744 0 .872.872 0 0 1 1.744 0z"/></symbol><symbol id="icon-Ellipse-3" viewBox="0 0 32 32"><path d="M32 16c0 4.418-1.791 8.418-4.686 11.314S20.419 32 16 32s-8.418-1.791-11.314-4.686C1.791 24.419 0 20.419 0 16S1.791 7.582 4.686 4.686 11.581 0 16 0c4.418 0 8.418 1.791 11.314 4.686S32 11.581 32 16z"/><path d="M23.269 23.273v-.001h.004v-5.335c0-2.61-.562-4.62-3.613-4.62-1.467 0-2.451.805-2.853 1.568h-.042v-1.324h-2.893v9.711h3.012v-4.809c0-1.266.24-2.49 1.808-2.49 1.545 0 1.568 1.445 1.568 2.572v4.728h3.009zM8.967 13.562h3.016v9.711H8.967v-9.711zM10.474 8.727c-.964 0-1.747.782-1.747 1.747s.782 1.763 1.747 1.763c.964 0 1.747-.799 1.747-1.763s-.783-1.747-1.747-1.747z"/></symbol><symbol id="icon-Ellipse-2" viewBox="0 0 32 32"><path d="M32 16c0 4.418-1.791 8.418-4.686 11.314S20.419 32 16 32s-8.418-1.791-11.314-4.686C1.791 24.419 0 20.419 0 16S1.791 7.582 4.686 4.686 11.581 0 16 0c4.418 0 8.418 1.791 11.314 4.686S32 11.581 32 16z"/><path d="M18.422 11.142h1.328V8.829a17.317 17.317 0 0 0-1.935-.102c-1.915 0-3.226 1.204-3.226 3.418v2.037h-2.113v2.585h2.113v6.505h2.59v-6.505h2.027l.322-2.585h-2.35v-1.781c.001-.747.202-1.259 1.243-1.259z"/></symbol><symbol id="icon-Ellipse-1" viewBox="0 0 32 32"><path d="M32 16c0 4.418-1.791 8.418-4.686 11.314S20.419 32 16 32s-8.418-1.791-11.314-4.686C1.791 24.419 0 20.419 0 16S1.791 7.582 4.686 4.686 11.581 0 16 0c4.418 0 8.418 1.791 11.314 4.686S32 11.581 32 16z"/><path d="M23.273 11.49a6.248 6.248 0 0 1-1.718.471 2.967 2.967 0 0 0 1.312-1.648 5.963 5.963 0 0 1-1.891.722 2.981 2.981 0 0 0-5.158 2.039c0 .236.02.464.069.68a8.439 8.439 0 0 1-6.146-3.119 2.985 2.985 0 0 0 .917 3.985 2.943 2.943 0 0 1-1.347-.367v.033a2.996 2.996 0 0 0 2.389 2.93 2.992 2.992 0 0 1-.782.098 2.64 2.64 0 0 1-.565-.051 3.01 3.01 0 0 0 2.786 2.077 5.991 5.991 0 0 1-3.697 1.272 5.59 5.59 0 0 1-.714-.041 8.393 8.393 0 0 0 4.575 1.338c5.487 0 8.487-4.545 8.487-8.485 0-.132-.005-.259-.011-.385a5.95 5.95 0 0 0 1.495-1.548z"/></symbol><symbol id="icon-diagram-1" viewBox="0 0 32 32"><path d="M14.926 14.965h1.066v4.798h-1.066v-4.797zM19.19 17.097h1.066v2.665H19.19v-2.665zM10.661 18.696h1.066v1.066h-1.066v-1.066zM7.463 18.163h1.066v1.599H7.463v-1.599z"/><path d="M1.599 28.291h25.587a1.6 1.6 0 0 0 1.599-1.599V24.56a1.6 1.6 0 0 0-1.599-1.599h-.533V9.668L29.681 6.8a1.608 1.608 0 1 0-.746-.763L26.654 8.2V6.97a1.6 1.6 0 0 0-1.599-1.599H3.733A1.6 1.6 0 0 0 2.134 6.97v15.992h-.533a1.6 1.6 0 0 0-1.599 1.599v2.132a1.6 1.6 0 0 0 1.599 1.599zM30.384 4.837a.533.533 0 1 1 0 1.067.533.533 0 0 1 0-1.067zM3.198 6.969c0-.294.239-.533.533-.533h21.322c.294 0 .533.239.533.533v2.239l-1.066 1.013V8.035a.533.533 0 0 0-.533-.533H4.797a.533.533 0 0 0-.533.533v13.326c0 .294.239.533.533.533h19.19a.533.533 0 0 0 .533-.533v-9.674l1.066-1.01v12.284H3.198V6.969zm4.798 6.93a1.598 1.598 0 1 0 1.107 2.749l1.853.93a.532.532 0 0 0 .636-.123l3.939-4.431 3.872 2.901a.533.533 0 0 0 .686-.039l3.365-3.188v8.131H5.33V8.569h18.124v2.66l-3.771 3.572-3.904-2.927a.533.533 0 0 0-.718.072l-3.993 4.493-1.493-.746c.011-.064.018-.129.02-.193a1.6 1.6 0 0 0-1.599-1.599zm.533 1.599a.533.533 0 1 1-1.067 0 .533.533 0 0 1 1.067 0zm3.198 8.528h5.331v.533a.533.533 0 0 1-.533.533h-4.264a.533.533 0 0 1-.533-.533v-.533zm-10.661.534c0-.294.239-.533.533-.533h9.062v.533a1.6 1.6 0 0 0 1.599 1.599h4.264a1.6 1.6 0 0 0 1.599-1.599v-.533h9.062c.294 0 .533.239.533.533v2.132a.533.533 0 0 1-.533.533H1.598a.533.533 0 0 1-.533-.533V24.56z"/></symbol><symbol id="icon-clock-1" viewBox="0 0 32 32"><path d="M31.297 15.301C31.295 6.849 24.442-.002 15.989 0S.686 6.855.688 15.308a15.304 15.304 0 0 0 10.649 14.576.662.662 0 0 0 .529-.065.637.637 0 0 0 .283-.356l3.865-12.25a1.912 1.912 0 1 0-.84-3.635l-5.106-5.107a.637.637 0 0 0-.902.902l5.103 5.109a1.876 1.876 0 0 0 .536 2.309l-3.683 11.673C3.844 25.783.118 17.71 2.799 10.432S13.553-.572 20.831 2.109s11.004 10.754 8.323 18.032a14.042 14.042 0 0 1-7.462 7.973l-.398-1.874a.638.638 0 0 0-1.048-.344l-3.837 3.426a.637.637 0 0 0 .231 1.084l4.899 1.563a.638.638 0 0 0 .819-.74l-.391-1.839a15.255 15.255 0 0 0 9.329-14.089zm-15.305-.637a.638.638 0 1 1 0 1.277.638.638 0 0 1 0-1.277zm2.101 14.864 2.184-1.948.603 2.84-2.787-.892z"/><path d="M15.354 3.185V4.46a.638.638 0 1 0 1.276 0V3.185a.638.638 0 0 0-1.276 0zM3.876 14.664a.638.638 0 0 0 0 1.276h1.275a.638.638 0 1 0 0-1.276H3.876zM28.108 15.939a.638.638 0 1 0 0-1.276h-1.275a.638.638 0 0 0 0 1.276h1.275z"/></symbol><symbol id="icon-astronaut-1" viewBox="0 0 32 32"><path d="M31.974 4.524a.534.534 0 0 0-.43-.363l-1.91-.278-.855-1.731c-.179-.365-.777-.365-.956 0l-.855 1.731-1.91.278a.535.535 0 0 0-.296.91l1.383 1.348-.326 1.903c-.034.2.048.402.212.522a.53.53 0 0 0 .562.04l1.709-.899 1.709.899a.536.536 0 0 0 .775-.563l-.326-1.903 1.383-1.348a.536.536 0 0 0 .135-.547zm-2.463 1.327a.534.534 0 0 0-.153.472l.191 1.114-1-.526a.533.533 0 0 0-.498 0l-1.001.526.191-1.114a.534.534 0 0 0-.153-.472l-.81-.789 1.119-.163a.532.532 0 0 0 .402-.292l.5-1.013.5 1.013a.535.535 0 0 0 .402.292l1.119.163-.809.789zM26.134 20.522h-1.067v1.067h1.067v-1.067zM26.134 22.656h-1.067v1.067h1.067v-1.067zM27.2 21.589h-1.067v1.067H27.2v-1.067zM25.067 21.589H24v1.067h1.067v-1.067zM22.4 26.389h-1.067v1.067H22.4v-1.067zM22.4 28.522h-1.067v1.067H22.4v-1.067zM23.467 27.456H22.4v1.067h1.067v-1.067zM21.333 27.456h-1.067v1.067h1.067v-1.067zM16 24.256h-1.067v1.067H16v-1.067zM16 26.389h-1.067v1.067H16v-1.067zM17.067 25.322H16v1.067h1.067v-1.067zM14.933 25.322h-1.067v1.067h1.067v-1.067zM5.867 6.122H4.8v1.067h1.067V6.122zM5.867 8.255H4.8v1.067h1.067V8.255z"/><path d="M6.933 7.189H5.866v1.067h1.067V7.189zM4.8 7.189H3.733v1.067H4.8V7.189z"/><path d="M24.715 14.159a1.775 1.775 0 0 0-1.188-.705 1.778 1.778 0 0 0-1.34.352l-1.252.96-1.898 1.417-1.358-.541c2.421-1.086 4.114-3.508 4.114-6.32 0-3.823-3.123-6.933-6.961-6.933s-6.961 3.11-6.961 6.933a6.86 6.86 0 0 0 1.12 3.758l-2.764-.024h-.005c-.009 0-.015.004-.023.005a.515.515 0 0 0-.155.031l-.038.013c-.006.003-.013.003-.019.006l-3.233 1.596-.001.001-1.893.911a.397.397 0 0 0-.063.035 1.779 1.779 0 0 0-.598 2.295c.22.429.595.745 1.056.889a1.776 1.776 0 0 0 1.378-.128l1.388-.738 2.264-1.169 1.357-.008L2.2 22.211l-.002.001-1.339 1.333c-.316.315-.49.732-.49 1.178s.174.863.49 1.179c.325.323.752.485 1.179.485s.854-.162 1.18-.485l1.314-1.309 1.741-1.3.901.897-1.762 1.754-.002.001-1.339 1.333c-.316.315-.49.732-.49 1.178s.174.863.49 1.179c.325.323.753.485 1.18.485s.855-.162 1.18-.485l3.482-3.467.001-.002 1.01-1-.004-.004c.006-.006.015-.009.022-.015l5.166-5.658 3.471.494a.52.52 0 0 0 .262-.033c.018-.006.033-.015.05-.023.019-.01.039-.015.058-.027l3.213-2.133c.012-.008.018-.021.029-.029.013-.01.029-.014.041-.026l1.271-1.191c.662-.62.753-1.635.212-2.362zM2.13 17.77a.714.714 0 0 1-.558.052.717.717 0 0 1-.213-1.26l1.314-.632.449 1.313-.992.527zm3.498-1.828-1.548.8-.439-1.283 2.027-1.001-.04 1.484zm15.099-6.62a5.79 5.79 0 0 1-.599 2.559l-4.181-1.899a1.863 1.863 0 0 0-.788-1.388l1.464-4.86c2.378.756 4.105 2.974 4.105 5.588zm-11.789 0c0-3.235 2.644-5.867 5.894-5.867.253 0 .5.021.745.052l-1.432 4.754c-.019-.001-.037-.006-.057-.006-1.033 0-1.873.837-1.873 1.867s.84 1.867 1.873 1.867c.694 0 1.294-.383 1.618-.945l3.862 1.755a5.894 5.894 0 0 1-4.737 2.39c-3.25 0-5.894-2.632-5.894-5.867zm5.956.8c0 .441-.362.8-.806.8s-.806-.359-.806-.8c0-.441.362-.8.806-.8s.806.359.806.8zM2.465 25.146a.608.608 0 0 1-.854.001.592.592 0 0 1 0-.844l.962-.959.851.848-.959.955zm3.214 3.734a.608.608 0 0 1-.855.001.592.592 0 0 1 0-.844l.963-.959.852.848-.96.955zm3.481-3.469-.002.001-1.765 1.76-.852-.848 1.763-1.755.002-.001c.04-.04.065-.088.09-.135.007-.014.02-.026.026-.04.017-.041.019-.085.026-.129.003-.025.014-.047.014-.073 0-.036-.013-.07-.02-.106-.006-.032-.006-.065-.019-.095a.55.55 0 0 0-.091-.138c-.01-.012-.014-.027-.025-.038h-.001l-.001-.002-1.607-1.6c-.017-.017-.039-.024-.058-.038a.507.507 0 0 0-.087-.058.515.515 0 0 0-.093-.033.507.507 0 0 0-.103-.02.5.5 0 0 0-.095.005.53.53 0 0 0-.104.02.477.477 0 0 0-.094.045c-.02.011-.042.015-.061.029L4.23 23.486l-.901-.897 2.399-2.386 4.361 4.289-.928.919zm6.819-7.017c-.015-.002-.03.004-.045.003a.556.556 0 0 0-.3.075.492.492 0 0 0-.083.061c-.013.011-.028.017-.04.029l-4.698 5.146-4.328-4.257 2.833-2.818a.534.534 0 0 0-.379-.911v-.001l-2.219.013.028-1.607 3.104.027a6.947 6.947 0 0 0 4.981 2.101c.437 0 .864-.045 1.279-.123.04.032.079.065.13.085l2.41.96.152.758.178.885-3.003-.427zm4.041.178-.313-1.558 1.446-1.08.947 1.257-2.08 1.381zm3.754-2.831-.838.785-.931-1.236.831-.637a.735.735 0 0 1 .543-.143.718.718 0 0 1 .48.284.713.713 0 0 1-.085.947z"/><path d="m13.602 18.544-2.143-2.133a.534.534 0 0 0-.753 0l-2.142 2.133a.537.537 0 0 0 0 .756l2.142 2.133a.536.536 0 0 0 .753 0l2.143-2.133a.535.535 0 0 0 0-.756zm-2.519 1.759-1.387-1.381 1.387-1.381 1.387 1.381-1.387 1.381zM17.164 5.071l-.258 1.036c.071.018 1.738.452 1.738 2.149h1.067c0-2.017-1.666-2.965-2.547-3.185zM19.711 9.322h-1.067v1.067h1.067V9.322z"/></symbol></defs></svg>